<?xml version="1.0" encoding="UTF-8" standalone="no"?>
<!-- Created with Inkscape (http://www.inkscape.org/) -->

<svg
   xmlns:dc="http://purl.org/dc/elements/1.1/"
   xmlns:cc="http://creativecommons.org/ns#"
   xmlns:rdf="http://www.w3.org/1999/02/22-rdf-syntax-ns#"
   xmlns:svg="http://www.w3.org/2000/svg"
   xmlns="http://www.w3.org/2000/svg"
   xmlns:xlink="http://www.w3.org/1999/xlink"
   xmlns:sodipodi="http://sodipodi.sourceforge.net/DTD/sodipodi-0.dtd"
   xmlns:inkscape="http://www.inkscape.org/namespaces/inkscape"
   width="250"
   height="100"
   viewBox="0 0 66.145832 26.458334"
   version="1.1"
   id="svg8"
   inkscape:version="0.92.3 (2405546, 2018-03-11)"
   sodipodi:docname="dessin.svg">
  <defs
     id="defs2">
    <linearGradient
       inkscape:collect="always"
       id="linearGradient856">
      <stop
         style="stop-color:#8d0000;stop-opacity:1;"
         offset="0"
         id="stop852" />
      <stop
         style="stop-color:#8d0000;stop-opacity:0;"
         offset="1"
         id="stop854" />
    </linearGradient>
    <radialGradient
       inkscape:collect="always"
       xlink:href="#linearGradient856"
       id="radialGradient860"
       cx="29.438368"
       cy="377.02087"
       fx="29.438368"
       fy="377.02087"
       r="20.142128"
       gradientTransform="matrix(1,0,0,0.10968921,0,335.66574)"
       gradientUnits="userSpaceOnUse" />
  </defs>
  <sodipodi:namedview
     id="base"
     pagecolor="#ffffff"
     bordercolor="#666666"
     borderopacity="1.0"
     inkscape:pageopacity="0.0"
     inkscape:pageshadow="2"
     inkscape:zoom="3.959798"
     inkscape:cx="169.46505"
     inkscape:cy="57.851065"
     inkscape:document-units="mm"
     inkscape:current-layer="layer1"
     showgrid="false"
     inkscape:window-width="1920"
     inkscape:window-height="1001"
     inkscape:window-x="2391"
     inkscape:window-y="-9"
     inkscape:window-maximized="1"
     units="px" />
  <metadata
     id="metadata5">
    <rdf:RDF>
      <cc:Work
         rdf:about="">
        <dc:format>image/svg+xml</dc:format>
        <dc:type
           rdf:resource="http://purl.org/dc/dcmitype/StillImage" />
        <dc:title></dc:title>
      </cc:Work>
    </rdf:RDF>
  </metadata>
  <g
     inkscape:label="Calque 1"
     inkscape:groupmode="layer"
     id="layer1"
     transform="translate(0,-270.54165)">
    <path
       style="opacity:1;fill:#26c4ec;fill-opacity:1;stroke:#8d0000;stroke-width:0.1981104;stroke-linecap:square;stroke-linejoin:miter;stroke-miterlimit:4;stroke-dasharray:none;stroke-opacity:1"
       d="m 33.159321,270.82724 -6.125509,4.70595 -14.545466,-2.73861 2.947926,6.29642 -15.05412077,0.9498 10.10665477,3.61072 -10.31037513,3.96296 15.48539313,0.68187 -2.778921,6.0901 13.869298,-2.85406 6.37149,4.78572 6.225257,-4.92812 14.038352,2.64921 -2.815868,-6.14806 15.224717,-1.01377 -10.046621,-3.594 10.16821,-3.80461 -15.658079,-0.71943 2.782009,-6.42023 -13.9451,2.95569 z"
       id="path4520"
       inkscape:connector-curvature="0" />
    <path
       sodipodi:type="inkscape:offset"
       inkscape:radius="0"
       inkscape:original="M 13.001953 281.28906 A 0.40094752 0.40094752 0 0 0 12.802734 282.03711 L 12.941406 282.11719 C 12.85672 282.1264 12.772039 282.13096 12.6875 282.14258 A 0.40094752 0.40094752 0 0 0 12.341797 282.53906 L 12.341797 282.96289 A 0.40094752 0.40094752 0 0 0 12.371094 283.11328 C 12.336425 283.14363 12.288148 283.15299 12.257812 283.18945 C 12.138509 283.33285 12.072266 283.52675 12.072266 283.71094 C 12.072266 284.03611 12.304023 284.32742 12.580078 284.47461 A 0.40094752 0.40094752 0 0 0 12.583984 284.47656 C 12.86248 284.62226 13.186441 284.67773 13.548828 284.67773 C 13.811033 284.67773 14.047523 284.65417 14.263672 284.5918 A 0.40094752 0.40094752 0 0 0 14.265625 284.5918 C 14.296394 284.58273 14.319576 284.55956 14.349609 284.54883 A 0.40094752 0.40094752 0 0 0 14.597656 284.63281 L 15.589844 284.63281 A 0.40094752 0.40094752 0 0 0 15.990234 284.23242 L 15.990234 283.24023 C 15.990234 282.84461 15.754523 282.45746 15.400391 282.2793 C 15.400391 282.2793 15.398438 282.2793 15.398438 282.2793 C 15.283652 282.22141 15.086194 282.23852 14.951172 282.20508 A 0.40094752 0.40094752 0 0 0 14.796875 281.95312 L 14.019531 281.36914 A 0.40094752 0.40094752 0 0 0 13.779297 281.28906 L 13.001953 281.28906 z M 31.796875 281.41602 A 0.40094752 0.40094752 0 0 0 31.396484 281.81641 L 31.396484 282.15039 A 0.40094752 0.40094752 0 0 0 31.191406 282.09375 L 30.576172 282.09375 L 30.576172 282 A 0.40094752 0.40094752 0 0 0 30.175781 281.59961 L 29.191406 281.59961 A 0.40094752 0.40094752 0 0 0 28.791016 282 L 28.791016 282.09375 L 28.757812 282.09375 A 0.40094752 0.40094752 0 0 0 28.628906 282.0625 C 28.552173 282.05708 28.494757 282.05577 28.455078 282.05469 L 28.443359 282.05469 C 28.407301 282.05275 28.369729 282.05078 28.326172 282.05078 C 28.065132 282.05078 27.827714 282.07983 27.613281 282.14844 C 27.591423 282.1554 27.576211 282.17572 27.554688 282.18359 A 0.40094752 0.40094752 0 0 0 27.300781 282.09375 L 26.316406 282.09375 A 0.40094752 0.40094752 0 0 0 25.916016 282.49414 L 25.916016 284.23242 A 0.40094752 0.40094752 0 0 0 26.316406 284.63281 L 27.300781 284.63281 A 0.40094752 0.40094752 0 0 0 27.701172 284.23242 L 27.701172 283.43164 C 27.701172 283.36804 27.69092 283.39584 27.726562 283.37305 C 27.770158 283.34384 27.885882 283.30078 28.089844 283.30078 C 28.156847 283.30078 28.225029 283.30528 28.292969 283.31445 A 0.40094752 0.40094752 0 0 0 28.298828 283.31641 C 28.369217 283.32486 28.438418 283.33621 28.503906 283.35352 A 0.40094752 0.40094752 0 0 0 28.791016 283.32227 L 28.791016 283.62891 C 28.791016 283.94679 28.954772 284.28371 29.234375 284.44336 A 0.40094752 0.40094752 0 0 0 29.238281 284.44531 C 29.519811 284.60248 29.841569 284.63281 30.261719 284.63281 L 31.105469 284.63281 A 0.40094752 0.40094752 0 0 0 31.451172 284.43359 A 0.40094752 0.40094752 0 0 0 31.796875 284.63281 L 32.78125 284.63281 A 0.40094752 0.40094752 0 0 0 33.181641 284.23242 L 33.181641 282.49414 A 0.40094752 0.40094752 0 0 0 33.166016 282.38281 A 0.40094752 0.40094752 0 0 0 33.181641 282.26953 L 33.181641 281.81641 A 0.40094752 0.40094752 0 0 0 32.78125 281.41602 L 31.796875 281.41602 z M 40.572266 281.41602 A 0.40094752 0.40094752 0 0 0 40.171875 281.81641 L 40.171875 282.13086 C 39.978803 282.08027 39.776069 282.05078 39.556641 282.05078 C 39.11784 282.05078 38.716626 282.15249 38.392578 282.37891 C 38.066445 282.60596 37.855469 282.97615 37.855469 283.36523 C 37.855469 283.75432 38.065908 284.12412 38.390625 284.35156 A 0.40094752 0.40094752 0 0 0 38.392578 284.35156 C 38.717125 284.5775 39.117806 284.67773 39.556641 284.67773 C 39.799466 284.67773 40.02428 284.6531 40.234375 284.5918 C 40.266374 284.58246 40.29099 284.55795 40.322266 284.54688 A 0.40094752 0.40094752 0 0 0 40.572266 284.63281 L 41.5625 284.63281 A 0.40094752 0.40094752 0 0 0 41.962891 284.23242 L 41.962891 283.61914 C 42.050772 283.9406 42.246618 284.23203 42.558594 284.39453 A 0.40094752 0.40094752 0 0 0 42.560547 284.39648 C 42.958474 284.60121 43.451562 284.67773 44.046875 284.67773 C 44.294252 284.67773 44.540701 284.66404 44.787109 284.63672 C 45.033425 284.61044 45.280453 284.57221 45.527344 284.51953 A 0.40094752 0.40094752 0 0 0 45.84375 284.12695 L 45.84375 283.82812 A 0.40094752 0.40094752 0 0 0 45.990234 283.51758 L 45.990234 283.35742 C 45.990234 282.941 45.723746 282.56146 45.349609 282.34961 C 44.975518 282.13706 44.519371 282.05078 43.990234 282.05078 C 43.417386 282.05078 42.936531 282.13373 42.546875 282.3418 C 42.241848 282.50567 42.050127 282.79322 41.962891 283.10938 L 41.962891 281.81641 A 0.40094752 0.40094752 0 0 0 41.5625 281.41602 L 40.572266 281.41602 z M 58.056641 281.4707 C 57.538538 281.4707 57.084292 281.5421 56.693359 281.70117 A 0.40094752 0.40094752 0 0 0 56.691406 281.70117 C 56.390659 281.82423 56.152851 282.02059 55.962891 282.25391 L 55.787109 282.25391 A 0.40094752 0.40094752 0 0 0 55.474609 282.4043 L 55.232422 282.70703 C 55.22086 282.69752 55.211131 282.68684 55.199219 282.67773 A 0.40094752 0.40094752 0 0 0 55.365234 282.35352 L 55.365234 281.91406 A 0.40094752 0.40094752 0 0 0 54.964844 281.51367 L 52.332031 281.51367 A 0.40094752 0.40094752 0 0 0 51.931641 281.91406 L 51.931641 283.21875 A 0.40094752 0.40094752 0 0 0 51.945312 283.32227 A 0.40094752 0.40094752 0 0 0 51.878906 283.37695 A 0.40094752 0.40094752 0 0 0 51.478516 282.97656 L 51.292969 282.97656 L 51.292969 281.91406 A 0.40094752 0.40094752 0 0 0 50.892578 281.51367 L 49.716797 281.51367 A 0.40094752 0.40094752 0 0 0 49.458984 281.60742 L 47.8125 282.99023 A 0.40094752 0.40094752 0 0 0 47.669922 283.29688 L 47.669922 283.81055 A 0.40094752 0.40094752 0 0 0 48.070312 284.21094 L 49.492188 284.21094 L 49.492188 284.23242 A 0.40094752 0.40094752 0 0 0 49.892578 284.63281 L 50.892578 284.63281 A 0.40094752 0.40094752 0 0 0 51.292969 284.23242 L 51.292969 284.21094 L 51.478516 284.21094 A 0.40094752 0.40094752 0 0 0 51.769531 284.08594 L 51.769531 284.12305 A 0.40094752 0.40094752 0 0 0 52.080078 284.51367 C 52.320375 284.56882 52.563252 284.61012 52.806641 284.63672 C 53.050058 284.66414 53.295595 284.67773 53.542969 284.67773 C 54.117366 284.67773 54.589506 284.60827 54.974609 284.42773 C 55.2184 284.31414 55.393573 284.11565 55.515625 283.89062 A 0.40094752 0.40094752 0 0 0 55.544922 283.89258 L 55.962891 283.89258 C 56.151412 284.12574 56.388922 284.32309 56.689453 284.44727 C 57.082738 284.60763 57.539117 284.67773 58.056641 284.67773 C 58.280223 284.67773 58.49776 284.66328 58.708984 284.63086 C 58.920436 284.59871 59.124346 284.55038 59.320312 284.48633 A 0.40094752 0.40094752 0 0 0 59.595703 284.10547 L 59.595703 283.625 A 0.40094752 0.40094752 0 0 0 59.007812 283.27148 C 58.881833 283.33838 58.755139 283.38677 58.623047 283.41992 A 0.40094752 0.40094752 0 0 0 58.681641 283.29883 A 0.40094752 0.40094752 0 0 0 58.791016 283.20312 L 59.027344 282.90039 A 0.40094752 0.40094752 0 0 0 59.035156 282.89062 A 0.40094752 0.40094752 0 0 0 59.595703 282.52344 L 59.595703 282.04492 A 0.40094752 0.40094752 0 0 0 59.320312 281.66406 C 59.124345 281.60001 58.920449 281.55167 58.708984 281.51953 C 58.500425 281.48751 58.282774 281.4707 58.056641 281.4707 z M 62.318359 281.51367 A 0.40094752 0.40094752 0 0 0 61.917969 281.91406 L 61.917969 282.80469 A 0.40094752 0.40094752 0 0 0 61.925781 282.89062 L 62.035156 283.39648 A 0.40094752 0.40094752 0 0 0 61.917969 283.67969 L 61.917969 284.23242 A 0.40094752 0.40094752 0 0 0 62.318359 284.63281 L 63.308594 284.63281 A 0.40094752 0.40094752 0 0 0 63.708984 284.23242 L 63.708984 283.67969 A 0.40094752 0.40094752 0 0 0 63.591797 283.39648 L 63.701172 282.89062 A 0.40094752 0.40094752 0 0 0 63.708984 282.80469 L 63.708984 281.91406 A 0.40094752 0.40094752 0 0 0 63.308594 281.51367 L 62.318359 281.51367 z M 64.892578 281.51367 A 0.40094752 0.40094752 0 0 0 64.492188 281.91406 L 64.492188 282.80469 A 0.40094752 0.40094752 0 0 0 64.5 282.89062 L 64.609375 283.39648 A 0.40094752 0.40094752 0 0 0 64.492188 283.67969 L 64.492188 284.23242 A 0.40094752 0.40094752 0 0 0 64.892578 284.63281 L 65.882812 284.63281 A 0.40094752 0.40094752 0 0 0 66.283203 284.23242 L 66.283203 283.67969 A 0.40094752 0.40094752 0 0 0 66.166016 283.39648 L 66.275391 282.89062 A 0.40094752 0.40094752 0 0 0 66.283203 282.80469 L 66.283203 281.91406 A 0.40094752 0.40094752 0 0 0 65.882812 281.51367 L 64.892578 281.51367 z M 20.476562 282.05078 C 20.232594 282.05078 20.004645 282.07626 19.792969 282.13867 C 19.761677 282.14774 19.737624 282.17095 19.707031 282.18164 A 0.40094752 0.40094752 0 0 0 19.455078 282.09375 L 18.470703 282.09375 A 0.40094752 0.40094752 0 0 0 18.070312 282.49414 L 18.070312 284.89453 A 0.40094752 0.40094752 0 0 0 18.470703 285.29492 L 19.455078 285.29492 A 0.40094752 0.40094752 0 0 0 19.855469 284.89453 L 19.855469 284.59961 C 20.050714 284.64946 20.255315 284.67773 20.476562 284.67773 C 20.915397 284.67773 21.316078 284.5775 21.640625 284.35156 A 0.40094752 0.40094752 0 0 0 21.642578 284.35156 C 21.779412 284.25572 21.881448 284.12552 21.970703 283.98828 C 22.057701 284.19131 22.194011 284.3729 22.384766 284.47461 A 0.40094752 0.40094752 0 0 0 22.388672 284.47656 C 22.667168 284.62226 22.991128 284.67773 23.353516 284.67773 C 23.61572 284.67773 23.851066 284.65394 24.066406 284.5918 A 0.40094752 0.40094752 0 0 0 24.068359 284.5918 C 24.099223 284.5827 24.122144 284.55763 24.152344 284.54688 A 0.40094752 0.40094752 0 0 0 24.402344 284.63281 L 25.394531 284.63281 A 0.40094752 0.40094752 0 0 0 25.794922 284.23242 L 25.794922 283.24023 C 25.794922 282.84461 25.55921 282.45746 25.205078 282.2793 C 25.205078 282.2793 25.203125 282.2793 25.203125 282.2793 C 24.848007 282.10022 24.404683 282.05078 23.820312 282.05078 C 23.597635 282.05078 23.376398 282.05801 23.154297 282.07422 C 22.934159 282.08926 22.712712 282.11227 22.492188 282.14258 A 0.40094752 0.40094752 0 0 0 22.146484 282.53906 L 22.146484 282.96289 A 0.40094752 0.40094752 0 0 0 22.175781 283.11133 C 22.158981 283.12603 22.136912 283.13235 22.121094 283.14844 C 22.057734 282.84486 21.903068 282.56162 21.640625 282.37891 C 21.316577 282.15249 20.915363 282.05078 20.476562 282.05078 z M 35.744141 282.05078 C 35.4831 282.05078 35.244604 282.07955 35.029297 282.14844 C 35.007438 282.1554 34.992227 282.17572 34.970703 282.18359 A 0.40094752 0.40094752 0 0 0 34.716797 282.09375 L 33.732422 282.09375 A 0.40094752 0.40094752 0 0 0 33.332031 282.49414 L 33.332031 284.23242 A 0.40094752 0.40094752 0 0 0 33.732422 284.63281 L 34.716797 284.63281 A 0.40094752 0.40094752 0 0 0 35.117188 284.23242 L 35.117188 283.43164 C 35.117188 283.37097 35.107414 283.39694 35.144531 283.37305 C 35.188126 283.34384 35.303852 283.30078 35.507812 283.30078 C 35.574816 283.30078 35.642997 283.30528 35.710938 283.31445 A 0.40094752 0.40094752 0 0 0 35.716797 283.31641 C 35.786474 283.32477 35.852989 283.33583 35.919922 283.35352 A 0.40094752 0.40094752 0 0 0 36.421875 282.96484 L 36.419922 282.46094 A 0.40094752 0.40094752 0 0 0 36.046875 282.0625 C 35.970141 282.05708 35.912727 282.05577 35.873047 282.05469 L 35.861328 282.05469 C 35.82527 282.05275 35.787698 282.05078 35.744141 282.05078 z M 31.396484 283.23438 L 31.396484 283.56055 A 0.40094752 0.40094752 0 0 0 31.105469 283.43555 L 30.599609 283.43555 C 30.578401 283.43555 30.59488 283.43692 30.576172 283.43555 L 30.576172 283.29102 L 31.191406 283.29102 A 0.40094752 0.40094752 0 0 0 31.396484 283.23438 z M 20.109375 283.25586 C 20.155631 283.29729 20.40218 283.36134 20.345703 283.30273 C 20.403834 283.57862 19.851225 283.47921 19.871094 283.42578 C 19.857342 283.41692 19.855469 283.4346 19.855469 283.36523 C 19.855469 283.29167 19.855629 283.31324 19.869141 283.30273 C 19.887142 283.2888 19.952757 283.25586 20.109375 283.25586 z M 39.921875 283.25586 C 39.968131 283.29729 40.21468 283.36134 40.158203 283.30273 C 40.219737 283.57768 39.657193 283.47802 39.689453 283.42773 C 39.676764 283.41884 39.675781 283.43843 39.675781 283.36523 C 39.675781 283.29206 39.676764 283.31163 39.689453 283.30273 C 39.707707 283.28882 39.770122 283.25586 39.921875 283.25586 z "
       xlink:href="#path1034"
       style="font-style:normal;font-variant:normal;font-weight:bold;font-stretch:normal;font-size:4.23333311px;line-height:1.25;font-family:sans-serif;-inkscape-font-specification:'sans-serif, Bold';font-variant-ligatures:normal;font-variant-caps:normal;font-variant-numeric:normal;font-feature-settings:normal;text-align:start;letter-spacing:0px;word-spacing:0px;writing-mode:lr-tb;text-anchor:start;fill:#700000;fill-opacity:0;stroke:none;stroke-width:0.15234223;stroke-opacity:1"
       id="path1036"
       inkscape:href="#path1034"
       d="m 13.001953,281.28906 a 0.40094752,0.40094752 0 0 0 -0.199219,0.74805 l 0.138672,0.0801 c -0.08469,0.009 -0.169367,0.0138 -0.253906,0.0254 a 0.40094752,0.40094752 0 0 0 -0.345703,0.39648 v 0.42383 a 0.40094752,0.40094752 0 0 0 0.0293,0.15039 c -0.03467,0.0303 -0.08295,0.0397 -0.113282,0.0762 -0.119303,0.1434 -0.185546,0.3373 -0.185546,0.52149 0,0.32517 0.231757,0.61648 0.507812,0.76367 a 0.40094752,0.40094752 0 0 0 0.0039,0.002 c 0.278496,0.1457 0.602457,0.20117 0.964844,0.20117 0.262205,0 0.498695,-0.0236 0.714844,-0.0859 a 0.40094752,0.40094752 0 0 0 0.002,0 c 0.03077,-0.009 0.05395,-0.0322 0.08398,-0.043 a 0.40094752,0.40094752 0 0 0 0.248047,0.084 h 0.992188 a 0.40094752,0.40094752 0 0 0 0.40039,-0.40039 v -0.99219 c 0,-0.39562 -0.235711,-0.78277 -0.589843,-0.96093 0,0 -0.002,0 -0.002,0 -0.114786,-0.0579 -0.312244,-0.0408 -0.447266,-0.0742 a 0.40094752,0.40094752 0 0 0 -0.154297,-0.25196 l -0.777344,-0.58398 a 0.40094752,0.40094752 0 0 0 -0.240234,-0.0801 z m 18.794922,0.12696 a 0.40094752,0.40094752 0 0 0 -0.400391,0.40039 v 0.33398 a 0.40094752,0.40094752 0 0 0 -0.205078,-0.0566 H 30.576172 V 282 a 0.40094752,0.40094752 0 0 0 -0.400391,-0.40039 H 29.191406 A 0.40094752,0.40094752 0 0 0 28.791016,282 v 0.0937 h -0.0332 a 0.40094752,0.40094752 0 0 0 -0.128906,-0.0312 c -0.07673,-0.005 -0.134149,-0.007 -0.173828,-0.008 h -0.01172 c -0.03606,-0.002 -0.07363,-0.004 -0.117187,-0.004 -0.26104,0 -0.498458,0.0291 -0.712891,0.0977 -0.02186,0.007 -0.03707,0.0273 -0.05859,0.0351 a 0.40094752,0.40094752 0 0 0 -0.253907,-0.0898 h -0.984375 a 0.40094752,0.40094752 0 0 0 -0.40039,0.40039 v 1.73828 a 0.40094752,0.40094752 0 0 0 0.40039,0.40039 h 0.984375 a 0.40094752,0.40094752 0 0 0 0.400391,-0.40039 v -0.80078 c 0,-0.0636 -0.01025,-0.0358 0.02539,-0.0586 0.0436,-0.0292 0.15932,-0.0723 0.363282,-0.0723 0.067,0 0.135185,0.005 0.203125,0.0137 a 0.40094752,0.40094752 0 0 0 0.0059,0.002 c 0.07039,0.008 0.13959,0.0198 0.205078,0.0371 a 0.40094752,0.40094752 0 0 0 0.28711,-0.0312 v 0.30664 c 0,0.31788 0.163756,0.6548 0.443359,0.81445 a 0.40094752,0.40094752 0 0 0 0.0039,0.002 c 0.28153,0.15717 0.603288,0.1875 1.023438,0.1875 h 0.84375 a 0.40094752,0.40094752 0 0 0 0.345703,-0.19922 0.40094752,0.40094752 0 0 0 0.345703,0.19922 h 0.984375 a 0.40094752,0.40094752 0 0 0 0.400391,-0.40039 v -1.73828 a 0.40094752,0.40094752 0 0 0 -0.01563,-0.11133 0.40094752,0.40094752 0 0 0 0.01563,-0.11328 v -0.45312 a 0.40094752,0.40094752 0 0 0 -0.400391,-0.40039 z m 8.775391,0 a 0.40094752,0.40094752 0 0 0 -0.400391,0.40039 v 0.31445 c -0.193072,-0.0506 -0.395806,-0.0801 -0.615234,-0.0801 -0.438801,0 -0.840015,0.10171 -1.164063,0.32813 -0.326133,0.22705 -0.537109,0.59724 -0.537109,0.98632 0,0.38909 0.210439,0.75889 0.535156,0.98633 a 0.40094752,0.40094752 0 0 0 0.002,0 c 0.324547,0.22594 0.725228,0.32617 1.164063,0.32617 0.242825,0 0.467639,-0.0246 0.677734,-0.0859 0.032,-0.009 0.05662,-0.0338 0.08789,-0.0449 a 0.40094752,0.40094752 0 0 0 0.25,0.0859 H 41.5625 a 0.40094752,0.40094752 0 0 0 0.400391,-0.40039 v -0.61328 c 0.08788,0.32146 0.283727,0.61289 0.595703,0.77539 a 0.40094752,0.40094752 0 0 0 0.002,0.002 c 0.397927,0.20473 0.891015,0.28125 1.486328,0.28125 0.247377,0 0.493826,-0.0137 0.740234,-0.041 0.246316,-0.0263 0.493344,-0.0645 0.740235,-0.11719 a 0.40094752,0.40094752 0 0 0 0.316406,-0.39258 v -0.29883 a 0.40094752,0.40094752 0 0 0 0.146484,-0.31054 v -0.16016 c 0,-0.41642 -0.266488,-0.79596 -0.640625,-1.00781 -0.374091,-0.21255 -0.830238,-0.29883 -1.359375,-0.29883 -0.572848,0 -1.053703,0.083 -1.443359,0.29102 -0.305027,0.16387 -0.496748,0.45142 -0.583984,0.76758 v -1.29297 A 0.40094752,0.40094752 0 0 0 41.5625,281.41602 Z m 17.484375,0.0547 c -0.518103,0 -0.972349,0.0714 -1.363282,0.23047 a 0.40094752,0.40094752 0 0 0 -0.002,0 c -0.300747,0.12306 -0.538555,0.31942 -0.728515,0.55274 h -0.175782 a 0.40094752,0.40094752 0 0 0 -0.3125,0.15039 l -0.242187,0.30273 c -0.01156,-0.01 -0.02129,-0.0202 -0.0332,-0.0293 a 0.40094752,0.40094752 0 0 0 0.166015,-0.32421 v -0.43946 a 0.40094752,0.40094752 0 0 0 -0.40039,-0.40039 h -2.632813 a 0.40094752,0.40094752 0 0 0 -0.40039,0.40039 v 1.30469 a 0.40094752,0.40094752 0 0 0 0.01367,0.10352 0.40094752,0.40094752 0 0 0 -0.06641,0.0547 0.40094752,0.40094752 0 0 0 -0.40039,-0.40039 h -0.185547 v -1.0625 a 0.40094752,0.40094752 0 0 0 -0.400391,-0.40039 h -1.175781 a 0.40094752,0.40094752 0 0 0 -0.257813,0.0937 l -1.646484,1.38281 a 0.40094752,0.40094752 0 0 0 -0.142578,0.30665 v 0.51367 a 0.40094752,0.40094752 0 0 0 0.40039,0.40039 h 1.421876 v 0.0215 a 0.40094752,0.40094752 0 0 0 0.40039,0.40039 h 1 a 0.40094752,0.40094752 0 0 0 0.400391,-0.40039 v -0.0215 h 0.185547 a 0.40094752,0.40094752 0 0 0 0.291015,-0.125 v 0.0371 a 0.40094752,0.40094752 0 0 0 0.310547,0.39062 c 0.240297,0.0552 0.483174,0.0965 0.726563,0.12305 0.243417,0.0274 0.488954,0.041 0.736328,0.041 0.574397,0 1.046537,-0.0695 1.43164,-0.25 0.243791,-0.11359 0.418964,-0.31208 0.541016,-0.53711 a 0.40094752,0.40094752 0 0 0 0.0293,0.002 h 0.417969 c 0.188521,0.23316 0.426031,0.43051 0.726562,0.55469 0.393285,0.16036 0.849664,0.23046 1.367188,0.23046 0.223582,0 0.441119,-0.0145 0.652343,-0.0469 0.211452,-0.0322 0.415362,-0.0805 0.611328,-0.14453 a 0.40094752,0.40094752 0 0 0 0.275391,-0.38086 V 283.625 a 0.40094752,0.40094752 0 0 0 -0.587891,-0.35352 c -0.125979,0.0669 -0.252673,0.11529 -0.384765,0.14844 a 0.40094752,0.40094752 0 0 0 0.05859,-0.12109 0.40094752,0.40094752 0 0 0 0.109375,-0.0957 l 0.236328,-0.30273 a 0.40094752,0.40094752 0 0 0 0.0078,-0.01 0.40094752,0.40094752 0 0 0 0.560547,-0.36718 v -0.47852 a 0.40094752,0.40094752 0 0 0 -0.275391,-0.38086 c -0.195967,-0.0641 -0.399863,-0.11239 -0.611328,-0.14453 -0.208559,-0.032 -0.42621,-0.0488 -0.652343,-0.0488 z m 4.261718,0.043 a 0.40094752,0.40094752 0 0 0 -0.40039,0.40039 v 0.89063 a 0.40094752,0.40094752 0 0 0 0.0078,0.0859 l 0.109375,0.50586 a 0.40094752,0.40094752 0 0 0 -0.117187,0.28321 v 0.55273 a 0.40094752,0.40094752 0 0 0 0.40039,0.40039 h 0.990235 a 0.40094752,0.40094752 0 0 0 0.40039,-0.40039 v -0.55273 a 0.40094752,0.40094752 0 0 0 -0.117187,-0.28321 l 0.109375,-0.50586 a 0.40094752,0.40094752 0 0 0 0.0078,-0.0859 v -0.89063 a 0.40094752,0.40094752 0 0 0 -0.40039,-0.40039 z m 2.574219,0 a 0.40094752,0.40094752 0 0 0 -0.40039,0.40039 v 0.89063 a 0.40094752,0.40094752 0 0 0 0.0078,0.0859 l 0.109375,0.50586 a 0.40094752,0.40094752 0 0 0 -0.117187,0.28321 v 0.55273 a 0.40094752,0.40094752 0 0 0 0.40039,0.40039 h 0.990234 a 0.40094752,0.40094752 0 0 0 0.400391,-0.40039 v -0.55273 a 0.40094752,0.40094752 0 0 0 -0.117187,-0.28321 l 0.109375,-0.50586 a 0.40094752,0.40094752 0 0 0 0.0078,-0.0859 v -0.89063 a 0.40094752,0.40094752 0 0 0 -0.400391,-0.40039 z m -44.416016,0.53711 c -0.243968,0 -0.471917,0.0255 -0.683593,0.0879 -0.03129,0.009 -0.05534,0.0323 -0.08594,0.043 a 0.40094752,0.40094752 0 0 0 -0.251953,-0.0879 h -0.984375 a 0.40094752,0.40094752 0 0 0 -0.400391,0.40039 v 2.40039 a 0.40094752,0.40094752 0 0 0 0.400391,0.40039 h 0.984375 a 0.40094752,0.40094752 0 0 0 0.400391,-0.40039 v -0.29492 c 0.195245,0.0498 0.399846,0.0781 0.621093,0.0781 0.438835,0 0.839516,-0.10023 1.164063,-0.32617 a 0.40094752,0.40094752 0 0 0 0.002,0 c 0.136834,-0.0958 0.23887,-0.22604 0.328125,-0.36328 0.087,0.20303 0.223308,0.38462 0.414063,0.48633 a 0.40094752,0.40094752 0 0 0 0.0039,0.002 c 0.278496,0.1457 0.602456,0.20117 0.964844,0.20117 0.262204,0 0.49755,-0.0238 0.71289,-0.0859 a 0.40094752,0.40094752 0 0 0 0.002,0 c 0.03086,-0.009 0.05378,-0.0342 0.08398,-0.0449 a 0.40094752,0.40094752 0 0 0 0.25,0.0859 h 0.992187 a 0.40094752,0.40094752 0 0 0 0.400391,-0.40039 v -0.99219 c 0,-0.39562 -0.235712,-0.78277 -0.589844,-0.96093 0,0 -0.002,0 -0.002,0 -0.355118,-0.17908 -0.798442,-0.22852 -1.382813,-0.22852 -0.222677,0 -0.443914,0.007 -0.666015,0.0234 -0.220138,0.015 -0.441585,0.038 -0.662109,0.0684 a 0.40094752,0.40094752 0 0 0 -0.345704,0.39648 v 0.42383 a 0.40094752,0.40094752 0 0 0 0.0293,0.14844 c -0.0168,0.0147 -0.03887,0.021 -0.05469,0.0371 -0.06336,-0.30358 -0.218026,-0.58682 -0.480469,-0.76953 -0.324048,-0.22642 -0.725262,-0.32813 -1.164063,-0.32813 z m 15.267579,0 c -0.261041,0 -0.499537,0.0288 -0.714844,0.0977 -0.02186,0.007 -0.03707,0.0273 -0.05859,0.0351 a 0.40094752,0.40094752 0 0 0 -0.253906,-0.0898 h -0.984375 a 0.40094752,0.40094752 0 0 0 -0.400391,0.40039 v 1.73828 a 0.40094752,0.40094752 0 0 0 0.400391,0.40039 h 0.984375 a 0.40094752,0.40094752 0 0 0 0.400391,-0.40039 v -0.80078 c 0,-0.0607 -0.0098,-0.0347 0.02734,-0.0586 0.04359,-0.0292 0.159321,-0.0723 0.363281,-0.0723 0.067,0 0.135185,0.005 0.203126,0.0137 a 0.40094752,0.40094752 0 0 0 0.0059,0.002 c 0.06968,0.008 0.136192,0.0194 0.203125,0.0371 a 0.40094752,0.40094752 0 0 0 0.501953,-0.38868 l -0.002,-0.5039 a 0.40094752,0.40094752 0 0 0 -0.373047,-0.39844 c -0.07673,-0.005 -0.134148,-0.007 -0.173828,-0.008 h -0.01172 c -0.03606,-0.002 -0.07363,-0.004 -0.117187,-0.004 z m -4.347657,1.1836 v 0.32617 a 0.40094752,0.40094752 0 0 0 -0.291015,-0.125 h -0.50586 c -0.02121,0 -0.0047,0.001 -0.02344,0 v -0.14453 h 0.615234 a 0.40094752,0.40094752 0 0 0 0.205078,-0.0566 z m -11.287109,0.0215 c 0.04626,0.0414 0.292805,0.10548 0.236328,0.0469 0.05813,0.27589 -0.494478,0.17648 -0.474609,0.12305 -0.01375,-0.009 -0.01563,0.009 -0.01563,-0.0605 0,-0.0736 1.6e-4,-0.052 0.01367,-0.0625 0.018,-0.0139 0.08362,-0.0469 0.240234,-0.0469 z m 19.8125,0 c 0.04626,0.0414 0.292805,0.10548 0.236328,0.0469 0.06153,0.27495 -0.50101,0.17529 -0.46875,0.125 -0.01269,-0.009 -0.01367,0.0107 -0.01367,-0.0625 0,-0.0732 9.83e-4,-0.0536 0.01367,-0.0625 0.01825,-0.0139 0.08067,-0.0469 0.232422,-0.0469 z" />
    <path
       sodipodi:type="inkscape:offset"
       inkscape:radius="0.40090743"
       inkscape:original="M 13.001953 281.68945 L 14.017578 282.27344 L 14.556641 282.27344 L 13.779297 281.68945 L 13.001953 281.68945 z M 31.796875 281.81641 L 31.796875 282.26953 L 32.78125 282.26953 L 32.78125 281.81641 L 31.796875 281.81641 z M 40.572266 281.81641 L 40.572266 282.74805 C 40.436552 282.64657 40.286151 282.57107 40.121094 282.52344 C 39.95787 282.47477 39.769382 282.45117 39.556641 282.45117 C 39.177008 282.45117 38.865012 282.53618 38.621094 282.70703 C 38.377175 282.87685 38.255859 283.09705 38.255859 283.36523 C 38.255859 283.63342 38.377175 283.85259 38.621094 284.02344 C 38.865012 284.19325 39.177008 284.27734 39.556641 284.27734 C 39.771216 284.27734 39.959823 284.25466 40.123047 284.20703 C 40.286271 284.1594 40.436552 284.08298 40.572266 283.98047 L 40.572266 284.23242 L 41.5625 284.23242 L 41.5625 281.81641 L 40.572266 281.81641 z M 58.056641 281.87109 C 57.57614 281.87109 57.172031 281.93869 56.84375 282.07227 C 56.517303 282.20584 56.283794 282.39958 56.142578 282.6543 L 55.787109 282.6543 L 55.544922 282.95703 L 56.056641 282.95703 C 56.054807 282.97256 56.052615 282.98929 56.050781 283.00586 L 56.050781 283.07617 L 56.050781 283.14453 C 56.052615 283.16006 56.054807 283.17496 56.056641 283.18945 L 55.787109 283.18945 L 55.544922 283.49219 L 56.142578 283.49219 C 56.280126 283.74587 56.513516 283.94053 56.841797 284.07617 C 57.171912 284.21078 57.57614 284.27734 58.056641 284.27734 C 58.262046 284.27734 58.459538 284.26337 58.648438 284.23438 C 58.839171 284.20538 59.021085 284.16242 59.195312 284.10547 L 59.195312 283.625 C 59.041259 283.7068 58.881735 283.76913 58.714844 283.81055 C 58.549786 283.85093 58.374923 283.87109 58.193359 283.87109 C 57.962279 283.87109 57.766858 283.83855 57.605469 283.77539 C 57.445913 283.71223 57.320214 283.61851 57.228516 283.49219 L 58.050781 283.49219 L 58.296875 283.18945 L 57.115234 283.18945 C 57.1134 283.17185 57.113162 283.1542 57.111328 283.13867 L 57.111328 283.09375 L 57.111328 283.00977 C 57.113162 282.99113 57.115473 282.9736 57.119141 282.95703 L 58.474609 282.95703 L 58.710938 282.6543 L 57.228516 282.6543 C 57.311044 282.53211 57.434433 282.44012 57.597656 282.37695 C 57.762714 282.31276 57.960445 282.28125 58.193359 282.28125 C 58.374923 282.28125 58.551978 282.30038 58.720703 282.3418 C 58.889429 282.38218 59.046761 282.44267 59.195312 282.52344 L 59.195312 282.04492 C 59.021085 281.98797 58.839171 281.94501 58.648438 281.91602 C 58.459538 281.88702 58.262046 281.87109 58.056641 281.87109 z M 49.716797 281.91406 L 48.070312 283.29688 L 48.070312 283.81055 L 49.892578 283.81055 L 49.892578 284.23242 L 50.892578 284.23242 L 50.892578 283.81055 L 51.478516 283.81055 L 51.478516 283.37695 L 50.892578 283.37695 L 50.892578 281.91406 L 49.716797 281.91406 z M 52.332031 281.91406 L 52.332031 283.21875 C 52.5301 283.17215 52.716278 283.13698 52.888672 283.11523 C 53.061065 283.09245 53.22278 283.08203 53.375 283.08203 C 53.631756 283.08203 53.833751 283.11709 53.980469 283.1875 C 54.129021 283.25791 54.203125 283.35438 54.203125 283.47656 C 54.203125 283.59771 54.129021 283.69418 53.980469 283.76562 C 53.833751 283.83604 53.631756 283.87109 53.375 283.87109 C 53.197105 283.87109 53.006425 283.85265 52.804688 283.81641 C 52.604784 283.78017 52.393667 283.72678 52.169922 283.6543 L 52.169922 284.12305 C 52.395501 284.17482 52.622197 284.21343 52.849609 284.23828 C 53.078856 284.26417 53.310054 284.27734 53.542969 284.27734 C 54.082157 284.27734 54.502082 284.20631 54.804688 284.06445 C 55.109127 283.9226 55.261719 283.72714 55.261719 283.47656 C 55.261719 283.22391 55.122514 283.02754 54.84375 282.88672 C 54.564986 282.74486 54.174503 282.67383 53.673828 282.67383 C 53.585797 282.67383 53.500498 282.67635 53.417969 282.68359 C 53.337274 282.68981 53.256476 282.70047 53.175781 282.71289 L 53.175781 282.35352 L 54.964844 282.35352 L 54.964844 281.91406 L 52.332031 281.91406 z M 62.318359 281.91406 L 62.318359 282.80469 L 62.458984 283.45312 L 63.167969 283.45312 L 63.308594 282.80469 L 63.308594 281.91406 L 62.318359 281.91406 z M 64.892578 281.91406 L 64.892578 282.80469 L 65.033203 283.45312 L 65.742188 283.45312 L 65.882812 282.80469 L 65.882812 281.91406 L 64.892578 281.91406 z M 29.191406 282 L 29.191406 282.49414 L 28.701172 282.49414 L 28.701172 282.89062 L 29.191406 282.89062 L 29.191406 283.62891 C 29.191406 283.84842 29.272204 284.00355 29.433594 284.0957 C 29.596817 284.18682 29.872916 284.23242 30.261719 284.23242 L 31.105469 284.23242 L 31.105469 283.83594 L 30.599609 283.83594 C 30.430884 283.83594 30.318572 283.82093 30.261719 283.79297 C 30.204866 283.76398 30.175781 283.70967 30.175781 283.62891 L 30.175781 282.89062 L 31.191406 282.89062 L 31.191406 282.49414 L 30.175781 282.49414 L 30.175781 282 L 29.191406 282 z M 49.892578 282.40625 L 49.892578 283.37695 L 48.730469 283.37695 L 49.892578 282.40625 z M 14.017578 282.45117 C 13.804837 282.45117 13.591647 282.45908 13.378906 282.47461 C 13.166165 282.48911 12.953094 282.51007 12.742188 282.53906 L 12.742188 282.96289 C 12.898075 282.91526 13.068437 282.88124 13.25 282.85742 C 13.431563 282.83361 13.626984 282.82031 13.837891 282.82031 C 14.098315 282.82031 14.289233 282.84139 14.412109 282.88281 C 14.534986 282.9232 14.597656 282.98816 14.597656 283.07617 L 14.597656 283.11914 L 14.017578 283.11914 C 13.485726 283.11914 13.095124 283.16646 12.845703 283.26172 C 12.598117 283.35698 12.472656 283.50695 12.472656 283.71094 C 12.472656 283.87868 12.571462 284.01548 12.769531 284.12109 C 12.969434 284.22567 13.229717 284.27734 13.548828 284.27734 C 13.785411 284.27734 13.987286 284.25466 14.152344 284.20703 C 14.317401 284.15837 14.46561 284.08023 14.597656 283.97461 L 14.597656 284.23242 L 15.589844 284.23242 L 15.589844 283.24023 C 15.589844 282.9617 15.466336 282.75994 15.21875 282.63672 C 14.972998 282.51246 14.573272 282.45117 14.017578 282.45117 z M 20.476562 282.45117 C 20.261988 282.45117 20.071308 282.47477 19.90625 282.52344 C 19.741192 282.57107 19.590792 282.64657 19.455078 282.74805 L 19.455078 282.49414 L 18.470703 282.49414 L 18.470703 284.89453 L 19.455078 284.89453 L 19.455078 283.98047 C 19.590792 284.08194 19.741192 284.15837 19.90625 284.20703 C 20.071308 284.25466 20.261988 284.27734 20.476562 284.27734 C 20.856195 284.27734 21.168191 284.19325 21.412109 284.02344 C 21.656028 283.85259 21.777344 283.63342 21.777344 283.36523 C 21.777344 283.09705 21.656028 282.87685 21.412109 282.70703 C 21.168191 282.53618 20.856195 282.45117 20.476562 282.45117 z M 23.820312 282.45117 C 23.607572 282.45117 23.396335 282.45908 23.183594 282.47461 C 22.970853 282.48911 22.757782 282.51007 22.546875 282.53906 L 22.546875 282.96289 C 22.702763 282.91526 22.871171 282.88124 23.052734 282.85742 C 23.234298 282.83361 23.431671 282.82031 23.642578 282.82031 C 23.903002 282.82031 24.093921 282.84139 24.216797 282.88281 C 24.339673 282.9232 24.402344 282.98816 24.402344 283.07617 L 24.402344 283.11914 L 23.820312 283.11914 C 23.28846 283.11914 22.897858 283.16646 22.648438 283.26172 C 22.400851 283.35698 22.277344 283.50695 22.277344 283.71094 C 22.277344 283.87868 22.37615 284.01548 22.574219 284.12109 C 22.774122 284.22567 23.034404 284.27734 23.353516 284.27734 C 23.590098 284.27734 23.790021 284.25466 23.955078 284.20703 C 24.120136 284.15837 24.270298 284.08023 24.402344 283.97461 L 24.402344 284.23242 L 25.394531 284.23242 L 25.394531 283.24023 C 25.394531 282.9617 25.271024 282.75994 25.023438 282.63672 C 24.777685 282.51246 24.376006 282.45117 23.820312 282.45117 z M 28.326172 282.45117 C 28.096925 282.45117 27.901386 282.47844 27.736328 282.53125 C 27.573104 282.58302 27.427325 282.6654 27.300781 282.7793 L 27.300781 282.49414 L 26.316406 282.49414 L 26.316406 284.23242 L 27.300781 284.23242 L 27.300781 283.43164 C 27.300781 283.26079 27.368192 283.13018 27.503906 283.03906 C 27.641454 282.94691 27.836755 282.90039 28.089844 282.90039 C 28.176041 282.90039 28.26134 282.90658 28.345703 282.91797 C 28.4319 282.92832 28.519272 282.94402 28.605469 282.9668 L 28.601562 282.46289 C 28.528204 282.45771 28.472107 282.45611 28.433594 282.45508 C 28.39508 282.45301 28.359183 282.45117 28.326172 282.45117 z M 35.744141 282.45117 C 35.514894 282.45117 35.317401 282.47844 35.152344 282.53125 C 34.98912 282.58302 34.843341 282.6654 34.716797 282.7793 L 34.716797 282.49414 L 33.732422 282.49414 L 33.732422 284.23242 L 34.716797 284.23242 L 34.716797 283.43164 C 34.716797 283.26079 34.786161 283.13018 34.921875 283.03906 C 35.059423 282.94691 35.254724 282.90039 35.507812 282.90039 C 35.594009 282.90039 35.679309 282.90658 35.763672 282.91797 C 35.849869 282.92832 35.935288 282.94402 36.021484 282.9668 L 36.019531 282.46289 C 35.946172 282.45771 35.890076 282.45611 35.851562 282.45508 C 35.813049 282.45301 35.777152 282.45117 35.744141 282.45117 z M 43.990234 282.45117 C 43.458382 282.45117 43.040768 282.53275 42.736328 282.69531 C 42.433723 282.85788 42.283203 283.08152 42.283203 283.36523 C 42.283203 283.65413 42.436033 283.87857 42.744141 284.03906 C 43.054082 284.19852 43.489347 284.27734 44.046875 284.27734 C 44.27979 284.27734 44.511226 284.26417 44.744141 284.23828 C 44.977055 284.21343 45.210445 284.17665 45.443359 284.12695 L 45.443359 283.69922 C 45.214113 283.76963 44.989727 283.82222 44.771484 283.85742 C 44.555076 283.89159 44.343958 283.9082 44.136719 283.9082 C 43.879962 283.9082 43.680159 283.87578 43.537109 283.81055 C 43.394059 283.74531 43.310951 283.64804 43.287109 283.51758 L 45.589844 283.51758 L 45.589844 283.35742 C 45.589844 283.08199 45.443946 282.8619 45.152344 282.69727 C 44.862576 282.53263 44.474403 282.45117 43.990234 282.45117 z M 31.796875 282.49414 L 31.796875 284.23242 L 32.78125 284.23242 L 32.78125 282.49414 L 31.796875 282.49414 z M 43.986328 282.82031 C 44.16239 282.82031 44.303905 282.85274 44.412109 282.91797 C 44.522148 282.98217 44.576172 283.06821 44.576172 283.17383 L 43.298828 283.17383 C 43.328172 283.05993 43.402276 282.97217 43.521484 282.91211 C 43.640693 282.85102 43.795595 282.82031 43.986328 282.82031 z M 20.109375 282.85547 C 20.320282 282.85547 20.481758 282.89935 20.591797 282.98633 C 20.703669 283.07331 20.759766 283.19956 20.759766 283.36523 C 20.759766 283.53091 20.703669 283.65716 20.591797 283.74414 C 20.481758 283.83112 20.320282 283.87305 20.109375 283.87305 C 19.898468 283.87305 19.736753 283.83112 19.623047 283.74414 C 19.511174 283.65613 19.455078 283.52987 19.455078 283.36523 C 19.455078 283.2006 19.511174 283.07331 19.623047 282.98633 C 19.736753 282.89831 19.898468 282.85547 20.109375 282.85547 z M 39.921875 282.85547 C 40.132782 282.85547 40.294258 282.89935 40.404297 282.98633 C 40.516169 283.07331 40.572266 283.19956 40.572266 283.36523 C 40.572266 283.53091 40.516169 283.65716 40.404297 283.74414 C 40.294258 283.83112 40.132782 283.87305 39.921875 283.87305 C 39.712802 283.87305 39.553279 283.83112 39.441406 283.74414 C 39.331368 283.65716 39.275391 283.53091 39.275391 283.36523 C 39.275391 283.19956 39.331368 283.07331 39.441406 282.98633 C 39.553279 282.89935 39.712802 282.85547 39.921875 282.85547 z M 14.085938 283.44922 L 14.597656 283.44922 L 14.597656 283.51367 C 14.597656 283.62654 14.534747 283.72129 14.408203 283.79688 C 14.281659 283.87143 14.124684 283.9082 13.939453 283.9082 C 13.790901 283.9082 13.674207 283.88896 13.589844 283.84961 C 13.507315 283.80923 13.466797 283.754 13.466797 283.68359 C 13.466797 283.60697 13.518391 283.54911 13.621094 283.50977 C 13.72563 283.47042 13.880532 283.44922 14.085938 283.44922 z M 23.890625 283.44922 L 24.402344 283.44922 L 24.402344 283.51367 C 24.402344 283.62654 24.337482 283.72129 24.210938 283.79688 C 24.084393 283.87143 23.929372 283.9082 23.744141 283.9082 C 23.595589 283.9082 23.478894 283.88896 23.394531 283.84961 C 23.312002 283.80923 23.271484 283.754 23.271484 283.68359 C 23.271484 283.60697 23.323079 283.54911 23.425781 283.50977 C 23.530318 283.47042 23.68522 283.44922 23.890625 283.44922 z M 62.318359 283.67969 L 62.318359 284.23242 L 63.308594 284.23242 L 63.308594 283.67969 L 62.318359 283.67969 z M 64.892578 283.67969 L 64.892578 284.23242 L 65.882812 284.23242 L 65.882812 283.67969 L 64.892578 283.67969 z "
       xlink:href="#text4528"
       style="font-style:normal;font-variant:normal;font-weight:bold;font-stretch:normal;font-size:4.23333311px;line-height:1.25;font-family:sans-serif;-inkscape-font-specification:'sans-serif, Bold';font-variant-ligatures:normal;font-variant-caps:normal;font-variant-numeric:normal;font-feature-settings:normal;text-align:start;letter-spacing:0px;word-spacing:0px;writing-mode:lr-tb;text-anchor:start;fill:#700000;fill-opacity:0;stroke:none;stroke-width:0.15234223;stroke-opacity:1"
       id="path1034"
       inkscape:href="#text4528"
       d="m 13.001953,281.28906 a 0.40094752,0.40094752 0 0 0 -0.199219,0.74805 l 0.138672,0.0801 c -0.08469,0.009 -0.169367,0.0138 -0.253906,0.0254 a 0.40094752,0.40094752 0 0 0 -0.345703,0.39648 v 0.42383 a 0.40094752,0.40094752 0 0 0 0.0293,0.15039 c -0.03467,0.0303 -0.08295,0.0397 -0.113282,0.0762 -0.119304,0.1434 -0.185546,0.3373 -0.185546,0.52149 0,0.32517 0.231757,0.61648 0.507812,0.76367 a 0.40094752,0.40094752 0 0 0 0.0039,0.002 c 0.278496,0.1457 0.602457,0.20117 0.964844,0.20117 0.262205,0 0.498695,-0.0236 0.714844,-0.0859 a 0.40094752,0.40094752 0 0 0 0.002,0 c 0.03077,-0.009 0.05395,-0.0322 0.08398,-0.043 a 0.40094752,0.40094752 0 0 0 0.248047,0.084 h 0.992188 a 0.40094752,0.40094752 0 0 0 0.40039,-0.40039 v -0.99219 c 0,-0.39562 -0.235711,-0.78277 -0.589843,-0.96093 -4.88e-4,-2.5e-4 -0.0015,2.4e-4 -0.002,0 -0.114785,-0.0579 -0.312244,-0.0408 -0.447266,-0.0742 a 0.40094752,0.40094752 0 0 0 -0.154297,-0.25196 l -0.777344,-0.58398 a 0.40094752,0.40094752 0 0 0 -0.240234,-0.0801 z m 18.794922,0.12696 a 0.40094752,0.40094752 0 0 0 -0.400391,0.40039 v 0.33398 a 0.40094752,0.40094752 0 0 0 -0.205078,-0.0566 H 30.576172 V 282 a 0.40094752,0.40094752 0 0 0 -0.400391,-0.40039 H 29.191406 A 0.40094752,0.40094752 0 0 0 28.791016,282 v 0.0937 h -0.0332 a 0.40094752,0.40094752 0 0 0 -0.128906,-0.0312 c -0.07673,-0.005 -0.134149,-0.007 -0.173828,-0.008 h -0.01172 c -0.03606,-0.002 -0.07363,-0.004 -0.117187,-0.004 -0.26104,0 -0.498458,0.0291 -0.712891,0.0977 -0.02186,0.007 -0.03707,0.0273 -0.05859,0.0351 a 0.40094752,0.40094752 0 0 0 -0.253907,-0.0898 h -0.984375 a 0.40094752,0.40094752 0 0 0 -0.40039,0.40039 v 1.73828 a 0.40094752,0.40094752 0 0 0 0.40039,0.40039 h 0.984375 a 0.40094752,0.40094752 0 0 0 0.400391,-0.40039 v -0.80078 c 0,-0.0636 -0.01025,-0.0358 0.02539,-0.0586 0.0436,-0.0292 0.15932,-0.0723 0.363282,-0.0723 0.067,0 0.135185,0.005 0.203125,0.0137 a 0.40094752,0.40094752 0 0 0 0.0059,0.002 c 0.07039,0.008 0.13959,0.0198 0.205078,0.0371 a 0.40094752,0.40094752 0 0 0 0.28711,-0.0312 v 0.30664 c 0,0.31788 0.163756,0.6548 0.443359,0.81445 a 0.40094752,0.40094752 0 0 0 0.0039,0.002 c 0.28153,0.15717 0.603288,0.1875 1.023438,0.1875 h 0.84375 a 0.40094752,0.40094752 0 0 0 0.345703,-0.19922 0.40094752,0.40094752 0 0 0 0.345703,0.19922 h 0.984375 a 0.40094752,0.40094752 0 0 0 0.400391,-0.40039 v -1.73828 a 0.40094752,0.40094752 0 0 0 -0.01563,-0.11133 0.40094752,0.40094752 0 0 0 0.01563,-0.11328 v -0.45312 a 0.40094752,0.40094752 0 0 0 -0.400391,-0.40039 z m 8.775391,0 a 0.40094752,0.40094752 0 0 0 -0.400391,0.40039 v 0.31445 c -0.193072,-0.0506 -0.395806,-0.0801 -0.615234,-0.0801 -0.438801,0 -0.840015,0.10171 -1.164063,0.32813 -0.326133,0.22705 -0.537109,0.59724 -0.537109,0.98632 0,0.38909 0.210439,0.75889 0.535156,0.98633 a 0.40094752,0.40094752 0 0 0 0.002,0 c 0.324547,0.22594 0.725228,0.32617 1.164063,0.32617 0.242825,0 0.467639,-0.0246 0.677734,-0.0859 0.032,-0.009 0.05662,-0.0338 0.08789,-0.0449 a 0.40094752,0.40094752 0 0 0 0.25,0.0859 H 41.5625 a 0.40094752,0.40094752 0 0 0 0.400391,-0.40039 v -0.61328 c 0.08788,0.32146 0.283727,0.61289 0.595703,0.77539 a 0.40094752,0.40094752 0 0 0 0.002,0.002 c 0.397927,0.20473 0.891015,0.28125 1.486328,0.28125 0.247377,0 0.493826,-0.0137 0.740234,-0.041 0.246316,-0.0263 0.493344,-0.0645 0.740235,-0.11719 a 0.40094752,0.40094752 0 0 0 0.316406,-0.39258 v -0.29883 a 0.40094752,0.40094752 0 0 0 0.146484,-0.31054 v -0.16016 c 0,-0.417 -0.26567,-0.79808 -0.640625,-1.00976 v 0.002 c -0.374091,-0.21255 -0.830238,-0.29883 -1.359375,-0.29883 -0.572848,0 -1.053703,0.083 -1.443359,0.29102 -0.305027,0.16387 -0.496748,0.45142 -0.583984,0.76758 v -1.29297 A 0.40094752,0.40094752 0 0 0 41.5625,281.41602 Z m 17.484375,0.0547 c -0.518103,0 -0.972349,0.0714 -1.363282,0.23047 a 0.40094752,0.40094752 0 0 0 -0.002,0 c -0.300747,0.12306 -0.538555,0.31942 -0.728515,0.55274 h -0.175782 a 0.40094752,0.40094752 0 0 0 -0.3125,0.15039 l -0.242187,0.30273 c -0.01156,-0.01 -0.02129,-0.0202 -0.0332,-0.0293 a 0.40094752,0.40094752 0 0 0 0.166015,-0.32421 v -0.43946 a 0.40094752,0.40094752 0 0 0 -0.40039,-0.40039 h -2.632813 a 0.40094752,0.40094752 0 0 0 -0.40039,0.40039 v 1.30469 a 0.40094752,0.40094752 0 0 0 0.01367,0.10352 0.40094752,0.40094752 0 0 0 -0.06641,0.0566 v -0.002 a 0.40094752,0.40094752 0 0 0 -0.40039,-0.40039 h -0.185547 v -1.0625 a 0.40094752,0.40094752 0 0 0 -0.400391,-0.40039 h -1.175781 a 0.40094752,0.40094752 0 0 0 -0.257813,0.0937 l -1.646484,1.38281 a 0.40094752,0.40094752 0 0 0 -0.142578,0.30665 v 0.51367 a 0.40094752,0.40094752 0 0 0 0.40039,0.40039 h 1.421876 v 0.0215 a 0.40094752,0.40094752 0 0 0 0.40039,0.40039 h 1 a 0.40094752,0.40094752 0 0 0 0.400391,-0.40039 v -0.0215 h 0.185547 a 0.40094752,0.40094752 0 0 0 0.291015,-0.125 v 0.0371 a 0.40094752,0.40094752 0 0 0 0.310547,0.39062 c 0.240297,0.0552 0.483174,0.0965 0.726563,0.12305 0.243417,0.0274 0.488954,0.041 0.736328,0.041 0.574397,0 1.046537,-0.0695 1.43164,-0.25 0.243791,-0.11359 0.418964,-0.31208 0.541016,-0.53711 a 0.40094752,0.40094752 0 0 0 0.0293,0.002 h 0.417969 c 0.188521,0.23316 0.426031,0.43051 0.726562,0.55469 0.393285,0.16036 0.849664,0.23046 1.367188,0.23046 0.223582,0 0.441119,-0.0145 0.652343,-0.0469 0.211452,-0.0322 0.415361,-0.0805 0.611328,-0.14453 a 0.40094752,0.40094752 0 0 0 0.275391,-0.38086 V 283.625 a 0.40094752,0.40094752 0 0 0 -0.587891,-0.35352 c -0.125979,0.0669 -0.252673,0.11529 -0.384765,0.14844 a 0.40094752,0.40094752 0 0 0 0.05859,-0.12109 0.40094752,0.40094752 0 0 0 0.109375,-0.0957 l 0.236328,-0.30273 a 0.40094752,0.40094752 0 0 0 0.0078,-0.01 0.40094752,0.40094752 0 0 0 0.560547,-0.36718 v -0.47852 a 0.40094752,0.40094752 0 0 0 -0.275391,-0.38086 c -0.195967,-0.0641 -0.399863,-0.11239 -0.611328,-0.14453 -0.208559,-0.032 -0.42621,-0.0488 -0.652343,-0.0488 z m 4.261718,0.043 a 0.40094752,0.40094752 0 0 0 -0.40039,0.40039 v 0.89063 a 0.40094752,0.40094752 0 0 0 0.0078,0.0859 l 0.109375,0.50586 a 0.40094752,0.40094752 0 0 0 -0.117187,0.28321 v 0.55273 a 0.40094752,0.40094752 0 0 0 0.40039,0.40039 h 0.990235 a 0.40094752,0.40094752 0 0 0 0.40039,-0.40039 v -0.55273 a 0.40094752,0.40094752 0 0 0 -0.117187,-0.28321 l 0.109375,-0.50586 a 0.40094752,0.40094752 0 0 0 0.0078,-0.0859 v -0.89063 a 0.40094752,0.40094752 0 0 0 -0.40039,-0.40039 z m 2.574219,0 a 0.40094752,0.40094752 0 0 0 -0.40039,0.40039 v 0.89063 a 0.40094752,0.40094752 0 0 0 0.0078,0.0859 l 0.109375,0.50586 a 0.40094752,0.40094752 0 0 0 -0.117187,0.28321 v 0.55273 a 0.40094752,0.40094752 0 0 0 0.40039,0.40039 h 0.990234 a 0.40094752,0.40094752 0 0 0 0.400391,-0.40039 v -0.55273 a 0.40094752,0.40094752 0 0 0 -0.117187,-0.28321 l 0.109375,-0.50586 a 0.40094752,0.40094752 0 0 0 0.0078,-0.0859 v -0.89063 a 0.40094752,0.40094752 0 0 0 -0.400391,-0.40039 z m -44.416016,0.53711 c -0.243969,0 -0.471917,0.0255 -0.683593,0.0879 -0.03129,0.009 -0.05534,0.0323 -0.08594,0.043 a 0.40094752,0.40094752 0 0 0 -0.251953,-0.0879 h -0.984375 a 0.40094752,0.40094752 0 0 0 -0.400391,0.40039 v 2.40039 a 0.40094752,0.40094752 0 0 0 0.400391,0.40039 h 0.984375 a 0.40094752,0.40094752 0 0 0 0.400391,-0.40039 v -0.29492 c 0.195245,0.0498 0.399846,0.0781 0.621093,0.0781 0.438835,0 0.839516,-0.10023 1.164063,-0.32617 a 0.40094752,0.40094752 0 0 0 0.002,0 c 0.136834,-0.0958 0.23887,-0.22604 0.328125,-0.36328 0.087,0.20303 0.223308,0.38462 0.414063,0.48633 a 0.40094752,0.40094752 0 0 0 0.0039,0.002 c 0.278496,0.1457 0.602456,0.20117 0.964844,0.20117 0.262204,0 0.49755,-0.0238 0.71289,-0.0859 a 0.40094752,0.40094752 0 0 0 0.002,0 c 0.03086,-0.009 0.05378,-0.0342 0.08398,-0.0449 a 0.40094752,0.40094752 0 0 0 0.25,0.0859 h 0.992187 a 0.40094752,0.40094752 0 0 0 0.400391,-0.40039 v -0.99219 c 0,-0.39562 -0.235712,-0.78277 -0.589844,-0.96093 -4.88e-4,-2.5e-4 -0.0015,2.4e-4 -0.002,0 -0.355118,-0.17908 -0.798443,-0.22852 -1.382813,-0.22852 -0.222677,0 -0.443914,0.007 -0.666015,0.0234 -0.220138,0.015 -0.441585,0.038 -0.662109,0.0684 a 0.40094752,0.40094752 0 0 0 -0.345704,0.39648 v 0.42383 a 0.40094752,0.40094752 0 0 0 0.0293,0.14844 c -0.0168,0.0147 -0.03887,0.021 -0.05469,0.0371 -0.06336,-0.30358 -0.218026,-0.58682 -0.480469,-0.76953 -0.324048,-0.22642 -0.725262,-0.32813 -1.164063,-0.32813 z m 15.267579,0 c -0.261041,0 -0.499537,0.0288 -0.714844,0.0977 -0.02186,0.007 -0.03707,0.0273 -0.05859,0.0351 a 0.40094752,0.40094752 0 0 0 -0.253906,-0.0898 h -0.984375 a 0.40094752,0.40094752 0 0 0 -0.400391,0.40039 v 1.73828 a 0.40094752,0.40094752 0 0 0 0.400391,0.40039 h 0.984375 a 0.40094752,0.40094752 0 0 0 0.400391,-0.40039 v -0.80078 c 0,-0.0607 -0.0098,-0.0347 0.02734,-0.0586 0.04359,-0.0292 0.159321,-0.0723 0.363281,-0.0723 0.067,0 0.135186,0.005 0.203126,0.0137 a 0.40094752,0.40094752 0 0 0 0.0059,0.002 c 0.06968,0.008 0.136192,0.0194 0.203125,0.0371 a 0.40094752,0.40094752 0 0 0 0.501953,-0.38868 l -0.002,-0.5039 a 0.40094752,0.40094752 0 0 0 -0.373047,-0.39844 c -0.07673,-0.005 -0.134148,-0.007 -0.173828,-0.008 h -0.01172 c -0.03606,-0.002 -0.07363,-0.004 -0.117187,-0.004 z m -4.347657,1.1836 v 0.32617 a 0.40094752,0.40094752 0 0 0 -0.291015,-0.125 h -0.50586 c -0.02121,0 -0.0047,0.001 -0.02344,0 v -0.14453 h 0.615234 a 0.40094752,0.40094752 0 0 0 0.205078,-0.0566 z m -11.287109,0.0215 c 0.04626,0.0414 0.292805,0.10548 0.236328,0.0469 0.05813,0.27589 -0.494478,0.17648 -0.474609,0.12305 -0.01375,-0.009 -0.01563,0.009 -0.01563,-0.0605 0,-0.0736 1.6e-4,-0.052 0.01367,-0.0625 0.018,-0.0139 0.08362,-0.0469 0.240234,-0.0469 z m 19.8125,0 c 0.04626,0.0414 0.292805,0.10548 0.236328,0.0469 0.06153,0.27495 -0.50101,0.17529 -0.46875,0.125 -0.01269,-0.009 -0.01367,0.0107 -0.01367,-0.0625 0,-0.0732 9.83e-4,-0.0536 0.01367,-0.0625 0.01825,-0.0139 0.08067,-0.0469 0.232422,-0.0469 z" />
    <text
       xml:space="preserve"
       style="font-style:normal;font-variant:normal;font-weight:bold;font-stretch:normal;font-size:4.23333311px;line-height:1.25;font-family:sans-serif;-inkscape-font-specification:'sans-serif, Bold';font-variant-ligatures:normal;font-variant-caps:normal;font-variant-numeric:normal;font-feature-settings:normal;text-align:start;letter-spacing:0px;word-spacing:0px;writing-mode:lr-tb;text-anchor:start;fill:#00ff61;fill-opacity:1;stroke:none;stroke-width:0.15234223;stroke-opacity:1"
       x="9.1905098"
       y="378.2735"
       id="text4528"
       transform="scale(1.3308583,0.75139479)"><tspan
         sodipodi:role="line"
         x="9.1905098"
         y="378.2735"
         style="font-style:normal;font-variant:normal;font-weight:bold;font-stretch:normal;font-size:4.23333311px;font-family:sans-serif;-inkscape-font-specification:'sans-serif, Bold';font-variant-ligatures:normal;font-variant-caps:normal;font-variant-numeric:normal;font-feature-settings:normal;text-align:start;writing-mode:lr-tb;text-anchor:start;fill:#7fff00;fill-opacity:1;stroke:none;stroke-width:0.15234223;stroke-opacity:1"
         id="tspan4530">à partir de 45€ !!</tspan></text>
  </g>
</svg>
